<?xml version="1.0"?>
<svg xmlns="http://www.w3.org/2000/svg" viewBox="0 0 500 500" width="500" height="500">
  <defs>
    <linearGradient id="bg" x1="0%" y1="0%" x2="100%" y2="100%">
      <stop offset="0%" stop-color="#1b1e2b"/>
      <stop offset="100%" stop-color="#0f111a"/>
    </linearGradient>
    <linearGradient id="windowGradient" x1="0%" y1="0%" x2="100%" y2="100%">
      <stop offset="0%" stop-color="#1d99f3"/>
      <stop offset="100%" stop-color="#1565C0"/>
    </linearGradient>
    <linearGradient id="busGradient" x1="0%" y1="0%" x2="100%" y2="0%">
      <stop offset="0%" stop-color="#1ddb9f"/>
      <stop offset="100%" stop-color="#12a879"/>
    </linearGradient>
    <filter id="glow" x="-20%" y="-20%" width="140%" height="140%">
      <feGaussianBlur stdDeviation="5" result="blur"/>
      <feComposite in="SourceGraphic" in2="blur" operator="over"/>
    </filter>
  </defs>
  <rect width="500" height="500" rx="90" fill="url(#bg)"/>
  <g transform="translate(100, 90)" filter="url(#glow)">
    <rect x="0" y="0" width="300" height="200" rx="16" fill="#1A233A" stroke="url(#windowGradient)" stroke-width="8"/>
    <path d="M 0 16 Q 0 0 16 0 L 284 0 Q 300 0 300 16 L 300 45 L 0 45 Z" fill="url(#windowGradient)"/>
    <circle cx="28" cy="22.5" r="7" fill="#ffffff" opacity="0.8"/>
    <circle cx="56" cy="22.5" r="7" fill="#ffffff" opacity="0.8"/>
    <circle cx="84" cy="22.5" r="7" fill="#ffffff" opacity="0.8"/>
  </g>
  <g transform="translate(90, 240)">
    <line x1="20" y1="80" x2="300" y2="80" stroke="url(#busGradient)" stroke-width="10" stroke-linecap="round"/>
    <line x1="60" y1="80" x2="60" y2="30" stroke="url(#busGradient)" stroke-width="6" stroke-linecap="round"/>
    <line x1="160" y1="80" x2="160" y2="130" stroke="url(#busGradient)" stroke-width="6" stroke-linecap="round"/>
    <line x1="260" y1="80" x2="260" y2="30" stroke="url(#busGradient)" stroke-width="6" stroke-linecap="round"/>
    <circle cx="20" cy="80" r="12" fill="#1b1e2b" stroke="#1ddb9f" stroke-width="6"/>
    <circle cx="300" cy="80" r="12" fill="#1b1e2b" stroke="#1ddb9f" stroke-width="6"/>
    <circle cx="60" cy="30" r="12" fill="#1b1e2b" stroke="#1ddb9f" stroke-width="6"/>
    <circle cx="160" cy="130" r="12" fill="#1b1e2b" stroke="#1ddb9f" stroke-width="6"/>
    <circle cx="260" cy="30" r="12" fill="#1b1e2b" stroke="#1ddb9f" stroke-width="6"/>
    <circle cx="110" cy="80" r="5" fill="#ffffff" opacity="0.9"/>
    <circle cx="210" cy="80" r="5" fill="#ffffff" opacity="0.9"/>
  </g>
  <text x="250" y="430" font-family="'Segoe UI', 'Ubuntu', sans-serif" font-weight="800" font-size="46" fill="#ffffff" text-anchor="middle" letter-spacing="1">
    KWin<tspan fill="#1ddb9f">_DBus</tspan>
  </text>
</svg>
